<?xml version="1.0" standalone="no"?>
<!DOCTYPE svg PUBLIC "-//W3C//DTD SVG 20010904//EN"
 "http://www.w3.org/TR/2001/REC-SVG-20010904/DTD/svg10.dtd">
<svg version="1.0" xmlns="http://www.w3.org/2000/svg"
 width="512.000000pt" height="512.000000pt" viewBox="0 0 512.000000 512.000000"
 preserveAspectRatio="xMidYMid meet">

<g transform="translate(0.000000,512.000000) scale(0.100000,-0.100000)"
fill="#000000" stroke="none">
<path d="M0 2560 l0 -2560 2560 0 2560 0 0 2560 0 2560 -2560 0 -2560 0 0
-2560z m3165 1794 c115 -29 198 -97 249 -204 l31 -65 0 -380 c0 -375 0 -381
-23 -438 -15 -35 -45 -81 -80 -118 -73 -79 -73 -100 -3 -174 29 -30 64 -81 79
-112 l27 -58 3 -364 c3 -342 2 -368 -17 -430 -36 -117 -126 -208 -244 -248
-47 -16 -120 -18 -820 -21 l-767 -3 -25 25 c-35 35 -31 58 20 116 88 99 80
-15 83 1144 3 1169 8 1089 -79 1178 -42 43 -49 56 -49 89 0 26 7 46 20 59 20
20 33 20 778 20 653 0 766 -2 817 -16z m-2255 -3009 l0 -145 135 0 135 0 0
145 0 145 75 0 75 0 0 -365 0 -365 -75 0 -75 0 0 150 0 150 -135 0 -135 0 0
-150 0 -150 -75 0 -75 0 0 365 0 365 75 0 75 0 0 -145z m3410 10 l0 -75 60 0
60 0 0 -65 0 -65 -60 0 -60 0 0 -119 c0 -113 1 -121 22 -135 12 -9 39 -16 60
-16 l38 0 0 -59 0 -58 -39 -7 c-48 -7 -122 6 -155 28 -49 32 -60 69 -64 224
l-4 142 -44 0 -44 0 0 65 0 65 45 0 45 0 0 53 0 53 63 21 c34 12 65 22 70 22
4 1 7 -33 7 -74z m-2529 -94 l49 -30 0 24 c0 24 3 25 65 25 l65 0 0 -260 0
-260 -65 0 c-63 0 -65 1 -65 25 0 30 -11 32 -35 5 -27 -29 -116 -53 -168 -45
-194 33 -289 269 -175 436 78 116 217 150 329 80z m1592 15 c93 -38 151 -130
151 -241 l1 -70 -192 -3 c-106 -1 -193 -6 -193 -11 0 -20 43 -61 76 -71 48
-16 119 -7 154 19 l28 20 46 -25 c25 -14 49 -30 52 -36 10 -15 -44 -65 -95
-86 -71 -31 -129 -36 -201 -18 -142 37 -219 145 -207 292 12 154 138 263 289
249 32 -2 73 -11 91 -19z m547 -6 c39 -20 83 -66 78 -82 -2 -5 -26 -22 -54
-38 l-51 -29 -23 25 c-39 41 -120 30 -120 -17 0 -17 9 -21 140 -66 66 -23 96
-48 115 -95 31 -78 -3 -161 -83 -199 -66 -32 -168 -32 -234 0 -47 22 -98 72
-98 94 0 7 24 25 54 41 l54 29 24 -28 c19 -21 35 -29 75 -32 44 -5 52 -3 67
18 15 22 15 25 -2 40 -9 9 -48 27 -87 39 -134 43 -171 82 -163 175 6 75 51
125 132 146 46 12 132 1 176 -21z m-1570 -55 l0 -75 -34 0 c-45 0 -98 -38
-113 -80 -7 -20 -12 -92 -12 -167 l-1 -133 -65 0 -65 0 0 260 0 260 65 0 65 0
0 -37 0 -38 23 27 c28 33 74 57 110 58 l27 0 0 -75z m283 -113 c37 -105 63
-168 68 -160 4 7 30 78 57 158 28 80 54 153 57 163 6 14 20 17 82 17 56 0 74
-3 71 -12 -3 -7 -47 -125 -99 -261 l-94 -248 -79 3 -80 3 -78 205 c-43 113
-87 229 -98 258 l-20 53 77 -3 77 -3 59 -173z"/>
<path d="M2173 4004 c-59 -29 -63 -51 -63 -363 0 -311 4 -337 59 -365 22 -12
61 -16 150 -16 95 0 123 -3 135 -16 13 -13 16 -45 16 -189 0 -216 9 -205 -165
-205 -198 0 -195 6 -195 -375 0 -234 3 -291 15 -315 32 -61 22 -60 447 -60
387 0 387 0 413 23 14 12 30 40 35 62 12 52 12 528 0 580 -5 22 -21 50 -35 63
-24 20 -36 22 -154 22 -111 0 -130 2 -144 18 -15 16 -17 45 -17 193 0 123 4
179 12 187 8 8 53 12 136 12 98 0 130 4 152 17 54 31 55 41 55 364 0 286 -1
299 -21 326 -39 52 -41 53 -434 53 -311 0 -370 -3 -397 -16z"/>
<path d="M1633 1151 c-50 -23 -74 -57 -80 -115 -11 -91 49 -156 144 -156 44 0
58 5 88 31 55 49 66 117 28 191 -27 56 -114 79 -180 49z"/>
<path d="M3188 1141 c-20 -17 -38 -40 -41 -51 -5 -19 0 -20 124 -20 145 0 152
4 100 62 -24 27 -36 32 -88 36 -56 4 -62 2 -95 -27z"/>
</g>
</svg>
